<svg xmlns="http://www.w3.org/2000/svg" viewBox="0 0 191.72 63.44"><title>P LOGOS MARKET</title><g id="Capa_6_copia_2" data-name="Capa 6 copia 2"><path d="M162.86,140.34c-1.56-3-2.51-5.9-2-9.17a8.38,8.38,0,0,1,1.09-2.89c1-1.6,1.35-2.07,2.11-1.15a9,9,0,0,1,1.95,7,15.78,15.78,0,0,1-2.07,6.23A.64.64,0,0,1,162.86,140.34Z" transform="translate(-136.28 -116)" fill="#00e595"/><path d="M160,142.12a.64.64,0,0,1-.54,1c-3.63-.33-6.87-1.14-9.48-3.74a10.25,10.25,0,0,1-2-3c-.43-.9-.33-1.26.78-1.19a12.86,12.86,0,0,1,6.15,2.13A22.38,22.38,0,0,1,160,142.12Z" transform="translate(-136.28 -116)" fill="#00e595"/><path d="M166.5,142.12a.64.64,0,0,0,.55,1c3.62-.33,6.86-1.14,9.47-3.74a10.25,10.25,0,0,0,2-3c.43-.9.33-1.26-.78-1.19a12.89,12.89,0,0,0-6.15,2.13A22.38,22.38,0,0,0,166.5,142.12Z" transform="translate(-136.28 -116)" fill="#00e595"/><polyline points="27.61 29.66 10.78 29.66 17.91 44.55 27.61 44.55" fill="none" stroke="#036" stroke-linecap="round" stroke-linejoin="round" stroke-width="1.5"/><polyline points="26.32 29.66 43.15 29.66 36.03 44.55 26.32 44.55" fill="none" stroke="#036" stroke-linecap="round" stroke-linejoin="round" stroke-width="1.5"/><polyline points="0.75 23.19 7.55 23.19 10.78 29.66" fill="none" stroke="#036" stroke-linecap="round" stroke-linejoin="round" stroke-width="1.5"/><polyline points="17.58 44.23 19.52 48.11 37.65 48.11" fill="none" stroke="#036" stroke-linecap="round" stroke-linejoin="round" stroke-width="1.5"/><circle cx="22.76" cy="52" r="2.59" fill="none" stroke="#036" stroke-linecap="round" stroke-linejoin="round" stroke-width="1.5"/><circle cx="35.06" cy="52" r="2.59" fill="none" stroke="#036" stroke-linecap="round" stroke-linejoin="round" stroke-width="1.5"/><text transform="translate(48.44 27.12)" font-size="31.9" fill="#036" font-family="MontserratAlternates-Bold, Montserrat Alternates" font-weight="700"><tspan letter-spacing="-0.01em">Ec</tspan><tspan x="39.69" y="0">o</tspan><tspan x="0" y="27.84">Ma</tspan><tspan x="60.97" y="27.84" letter-spacing="0em">r</tspan><tspan x="74.59" y="27.84" letter-spacing="-0.02em">k</tspan><tspan x="94.92" y="27.84">et</tspan></text></g></svg>